<svg width="144" height="174" viewBox="0 0 144 174" fill="none" xmlns="http://www.w3.org/2000/svg">
<path d="M17.16 23.2C17.204 27.644 13.464 30.328 9.24 30.328C6.644 30.328 4.18 28.612 4.18 25.84C4.18 21.396 10.032 21.44 14.74 20.604C15.488 20.472 16.72 20.252 17.072 19.592H17.16V23.2ZM5.148 16.248C5.236 12.552 7.788 10.968 11.22 10.968C14.476 10.968 17.16 11.892 17.16 15.632C17.16 18.14 15.884 18.448 13.596 18.712C7.612 19.416 1.408 19.636 1.408 26.016C1.408 30.592 4.84 32.66 9.02 32.66C13.376 32.66 15.356 30.988 17.292 28.04H17.38C17.38 30.416 17.82 32 20.636 32C21.384 32 21.824 31.956 22.44 31.824V29.492C22.22 29.58 21.868 29.668 21.56 29.668C20.46 29.668 19.932 29.052 19.932 27.996V15.94C19.932 9.868 15.576 8.636 11.572 8.636C6.38 8.636 2.64 10.924 2.376 16.248H5.148ZM25.5004 32H28.2724V0.583998H25.5004V32ZM33.6215 32H36.3935V0.583998H33.6215V32ZM60.4567 31.912L59.4887 34.508C58.5647 36.62 57.9927 38.072 55.5287 38.072C54.9127 38.072 54.2967 37.984 53.6367 37.852V40.184C54.0767 40.36 54.6487 40.36 55.7487 40.404C59.2247 40.404 60.1487 39.304 61.7327 35.476L71.5887 9.296H68.8167L61.8207 28.656L54.3407 9.296H51.3927L60.4567 31.912ZM83.9039 8.636C76.9519 8.636 73.1679 14.136 73.1679 20.648C73.1679 27.16 76.9519 32.66 83.9039 32.66C90.8559 32.66 94.6399 27.16 94.6399 20.648C94.6399 14.136 90.8559 8.636 83.9039 8.636ZM83.9039 10.968C89.2279 10.968 91.8679 15.808 91.8679 20.648C91.8679 25.488 89.2279 30.328 83.9039 30.328C78.5799 30.328 75.9399 25.488 75.9399 20.648C75.9399 15.808 78.5799 10.968 83.9039 10.968ZM117.153 9.296H114.381V21.22C114.381 25.84 112.313 30.328 107.561 30.328C103.161 30.328 101.621 28.172 101.489 24.08V9.296H98.7171V24.036C98.7171 29.316 100.961 32.66 106.681 32.66C110.069 32.66 113.061 30.944 114.513 27.908H114.601V32H117.153V9.296ZM122.394 32H125.166V19.9C125.166 15.192 128.598 11.496 133.614 11.76V8.988C129.522 8.812 126.442 10.968 125.034 14.62H124.946V9.296H122.394V32ZM21.428 57.424C20.812 52.232 17.072 49.636 12.232 49.636C5.28 49.636 1.496 55.136 1.496 61.648C1.496 68.16 5.28 73.66 12.232 73.66C17.292 73.66 20.856 70.316 21.604 64.86H18.832C18.48 68.644 15.664 71.328 12.232 71.328C6.908 71.328 4.268 66.488 4.268 61.648C4.268 56.808 6.908 51.968 12.232 51.968C15.84 51.968 17.908 54.036 18.656 57.424H21.428ZM35.0484 49.636C28.0964 49.636 24.3124 55.136 24.3124 61.648C24.3124 68.16 28.0964 73.66 35.0484 73.66C42.0004 73.66 45.7844 68.16 45.7844 61.648C45.7844 55.136 42.0004 49.636 35.0484 49.636ZM35.0484 51.968C40.3724 51.968 43.0124 56.808 43.0124 61.648C43.0124 66.488 40.3724 71.328 35.0484 71.328C29.7244 71.328 27.0844 66.488 27.0844 61.648C27.0844 56.808 29.7244 51.968 35.0484 51.968ZM49.8616 73H52.6336V59.756C52.7216 55.312 55.3616 51.968 59.7616 51.968C64.2496 51.968 65.5256 54.916 65.5256 58.832V73H68.2976V58.392C68.2976 52.98 66.3616 49.636 59.9816 49.636C56.7696 49.636 53.7336 51.484 52.7216 54.212H52.6336V50.296H49.8616V73ZM77.9384 43.476H75.1664V50.296H71.2064V52.628H75.1664V68.16C75.1224 72.032 76.3984 73.264 80.0944 73.264C80.9304 73.264 81.7224 73.176 82.5584 73.176V70.8C81.7664 70.888 80.9744 70.932 80.1824 70.932C78.2024 70.8 77.9384 69.744 77.9384 67.94V52.628H82.5584V50.296H77.9384V43.476ZM105.654 62.396C105.874 56.016 102.97 49.636 95.666 49.636C88.45 49.636 85.414 55.664 85.414 61.648C85.414 68.116 88.45 73.66 95.666 73.66C101.386 73.66 104.378 70.668 105.566 65.52H102.794C101.914 68.952 99.714 71.328 95.666 71.328C90.342 71.328 88.23 66.444 88.186 62.396H105.654ZM88.186 60.064C88.626 55.928 91.134 51.968 95.666 51.968C100.154 51.968 102.75 55.884 102.882 60.064H88.186ZM109.33 73H112.102V59.756C112.19 55.312 114.83 51.968 119.23 51.968C123.718 51.968 124.994 54.916 124.994 58.832V73H127.766V58.392C127.766 52.98 125.83 49.636 119.45 49.636C116.238 49.636 113.202 51.484 112.19 54.212H112.102V50.296H109.33V73ZM137.407 43.476H134.635V50.296H130.675V52.628H134.635V68.16C134.591 72.032 135.867 73.264 139.563 73.264C140.399 73.264 141.191 73.176 142.027 73.176V70.8C141.235 70.888 140.443 70.932 139.651 70.932C137.671 70.8 137.407 69.744 137.407 67.94V52.628H142.027V50.296H137.407V43.476Z" fill="white"/>
<path d="M52.672 110.648C52.672 117.864 57.292 122.616 64.42 122.616C71.592 122.616 76.212 117.864 76.212 110.648C76.212 103.388 71.592 98.636 64.42 98.636C57.292 98.636 52.672 103.388 52.672 110.648ZM58.92 110.648C58.92 106.996 60.196 103.344 64.42 103.344C68.688 103.344 69.964 106.996 69.964 110.648C69.964 114.256 68.688 117.908 64.42 117.908C60.196 117.908 58.92 114.256 58.92 110.648ZM80.2744 122H86.5224V110.076C86.5224 105.456 87.9744 103.564 91.3624 103.564C94.2664 103.564 95.3664 105.412 95.3664 109.152V122H101.614V108.008C101.614 102.376 99.9424 98.636 93.2984 98.636C90.6584 98.636 87.9304 99.868 86.3464 102.42H86.2144V99.252H80.2744V122ZM127.916 112.144C128.356 105.148 124.616 98.636 116.872 98.636C109.964 98.636 105.256 103.828 105.256 110.648C105.256 117.688 109.7 122.616 116.872 122.616C122.02 122.616 125.76 120.328 127.52 114.96H122.02C121.624 116.368 119.6 117.908 117.092 117.908C113.616 117.908 111.68 116.104 111.504 112.144H127.916ZM111.504 108.184C111.592 106.424 112.736 103.344 116.696 103.344C119.732 103.344 121.096 105.016 121.668 108.184H111.504ZM52.012 163H78.5V157.192H61.208L78.06 137.04V131.584H53.332V137.392H68.864L52.012 157.544V163ZM103.467 153.144C103.907 146.148 100.167 139.636 92.4233 139.636C85.5153 139.636 80.8073 144.828 80.8073 151.648C80.8073 158.688 85.2513 163.616 92.4233 163.616C97.5713 163.616 101.311 161.328 103.071 155.96H97.5713C97.1753 157.368 95.1513 158.908 92.6433 158.908C89.1673 158.908 87.2313 157.104 87.0553 153.144H103.467ZM87.0553 149.184C87.1433 147.424 88.2873 144.344 92.2473 144.344C95.2833 144.344 96.6473 146.016 97.2193 149.184H87.0553ZM107.349 163H113.597V131.584H107.349V163ZM119.881 163H126.129V144.432H130.441V140.252H126.129V138.888C126.129 136.996 126.833 136.292 128.505 136.292C129.297 136.292 130.045 136.336 130.793 136.424V131.76C129.737 131.716 128.593 131.584 127.493 131.584C122.389 131.584 119.881 134.488 119.881 138.492V140.252H116.141V144.432H119.881V163ZM133.433 163H140.341V156.224H133.433V163Z" fill="#FFEB80"/>
</svg>
